<svg width="80" height="80" fill="none" xmlns="http://www.w3.org/2000/svg"><path d="M29.393 14.393a27.715 27.715 0 015.841-1.697A42.641 42.641 0 0027.072 28H15.016a27.716 27.716 0 0114.377-13.607zM14.15 30.003a27.717 27.717 0 00-.365 18.994V47h12.142a42.662 42.662 0 01.18-15H14.15v-1.997zM30.186 32a38.659 38.659 0 00-.198 15h20.024a38.657 38.657 0 00-.199-15H30.186zm23.707 0a42.662 42.662 0 01.18 15h12.14v2.003a27.717 27.717 0 00-.364-19.006V32H53.893zm11.091-4H52.927a42.659 42.659 0 00-8.164-15.304A27.711 27.711 0 0164.984 28zm.456 23H53.21a42.659 42.659 0 01-8.44 16.303A27.71 27.71 0 0065.44 51zm-16.387 0H30.947a38.676 38.676 0 008.189 14.705c.577.02 1.154.02 1.73 0A38.639 38.639 0 0049.053 51zm-22.261 0H14.56a27.716 27.716 0 0020.674 16.304A42.639 42.639 0 0126.792 51zM48.74 28H31.26a38.64 38.64 0 017.87-13.698 25.15 25.15 0 011.737 0A38.639 38.639 0 0148.74 28z" fill="#C2CCDE"/></svg>